<svg xmlns="http://www.w3.org/2000/svg" xmlns:xlink="http://www.w3.org/1999/xlink" width="500" zoomAndPan="magnify" viewBox="0 0 375 374.999991" height="500" preserveAspectRatio="xMidYMid meet" version="1.0"><path fill="#000000" d="M 158.488281 372.949219 C 157.054688 372.308594 154.3125 371.742188 152.394531 371.695312 C 147.242188 371.558594 115.191406 361.464844 109.058594 358.046875 C 106.148438 356.425781 99.074219 352.539062 93.339844 349.410156 C 77.941406 341.011719 56.960938 323.074219 43.464844 306.777344 C 31.929688 292.839844 14.492188 263.226562 12.507812 254.199219 C 12.027344 252.015625 9.898438 244.882812 7.78125 238.34375 C 1.464844 218.871094 -0.625 189.109375 2.417969 161.984375 C 5.773438 132.113281 21.261719 94.769531 39.132812 73.460938 C 42.433594 69.527344 46.304688 64.847656 47.738281 63.054688 C 51.085938 58.867188 59.855469 50.105469 64.046875 46.757812 C 65.835938 45.328125 70.523438 41.472656 74.457031 38.195312 C 78.394531 34.914062 83.667969 31.015625 86.175781 29.523438 C 99.570312 21.5625 116.1875 13.0625 121.355469 11.53125 C 156.308594 1.148438 162.585938 0.0703125 187.804688 0.0859375 C 206.738281 0.0976562 225.664062 2.089844 234.050781 4.949219 C 236.921875 5.929688 243.667969 8.019531 249.042969 9.589844 C 258.71875 12.421875 271.925781 18.558594 285.257812 26.417969 C 289.050781 28.652344 292.503906 30.484375 292.929688 30.484375 C 293.359375 30.484375 297.289062 33.570312 301.667969 37.339844 C 306.046875 41.113281 312.429688 46.4375 315.855469 49.175781 C 324.183594 55.835938 344.421875 81.007812 350.546875 92.332031 C 353.257812 97.339844 356.953125 104.078125 358.757812 107.300781 C 362.296875 113.621094 370.800781 139.359375 373.042969 150.542969 C 375.515625 162.863281 375.882812 206.078125 373.625 219.210938 C 365.644531 265.636719 341.878906 305.296875 303.632812 336.011719 C 294.105469 343.664062 290.328125 346.027344 270.726562 356.585938 C 261.335938 361.644531 242.902344 367.910156 227.542969 371.273438 C 217.097656 373.554688 162.796875 374.875 158.484375 372.949219 Z M 218.792969 352.042969 C 235.910156 343.355469 255.128906 323.28125 266.554688 302.144531 C 269.207031 297.246094 271.058594 292.410156 270.671875 291.40625 C 269.722656 288.925781 197.046875 288.671875 194.578125 291.140625 C 192.890625 292.824219 192.21875 356.050781 193.867188 357.699219 C 195.921875 359.753906 209.800781 356.601562 218.789062 352.039062 Z M 177.378906 325.382812 C 177.738281 308.195312 177.53125 293.03125 176.917969 291.683594 C 175.941406 289.535156 174.835938 289.335938 167.929688 290.058594 C 163.601562 290.507812 147.246094 290.878906 131.585938 290.878906 C 104.269531 290.878906 103.113281 290.980469 103.113281 293.40625 C 103.113281 294.796875 103.636719 296.253906 104.273438 296.648438 C 104.910156 297.042969 107.03125 300.449219 108.988281 304.210938 C 122.796875 330.816406 154.359375 357.691406 170.867188 356.90625 L 176.730469 356.628906 L 177.382812 325.378906 Z M 265.070312 342.597656 C 268.796875 340.253906 274.679688 336.882812 278.140625 335.113281 C 292.597656 327.710938 327.6875 294.789062 325.273438 290.886719 C 324.03125 288.882812 291.375 289.171875 289.777344 291.203125 C 289.074219 292.101562 285.429688 298.777344 281.675781 306.042969 C 277.925781 313.308594 270.21875 325.199219 264.554688 332.460938 C 258.890625 339.726562 254.257812 345.9375 254.257812 346.265625 C 254.257812 348.007812 259.070312 346.375 265.070312 342.597656 Z M 115.976562 340.554688 C 114.996094 339.230469 110.613281 333.4375 106.238281 327.679688 C 101.867188 321.921875 95.785156 312.3125 92.726562 306.324219 C 84.425781 290.085938 85.710938 290.878906 67.734375 290.878906 C 54.757812 290.878906 52.300781 291.195312 52.300781 292.867188 C 52.300781 295.429688 75.378906 318.601562 85.414062 326.121094 C 102.15625 338.664062 121.289062 347.699219 115.976562 340.554688 Z M 77.769531 273.851562 C 78.246094 273.082031 77.722656 270.003906 76.605469 267.015625 C 73.296875 258.167969 66.984375 223.527344 66.152344 209.667969 C 65.726562 202.59375 64.710938 196.003906 63.890625 195.019531 C 62.742188 193.636719 57.648438 193.234375 41.390625 193.25 C 29.835938 193.261719 19.515625 193.8125 18.464844 194.480469 C 12.863281 198.019531 21.792969 240.519531 32.546875 261.519531 C 39.773438 275.625 39.054688 275.253906 59.390625 275.253906 C 70.492188 275.253906 77.21875 274.742188 77.769531 273.855469 Z M 177.4375 271.863281 C 178.210938 269.828125 178.589844 253.546875 178.378906 231.175781 L 178.035156 193.882812 L 131.128906 193.566406 C 105.273438 193.394531 83.40625 193.773438 82.402344 194.414062 C 80.875 195.386719 80.816406 198.25 82.039062 212.304688 C 84.378906 239.191406 92.03125 271.078125 96.886719 274.15625 C 97.804688 274.738281 116.011719 275.222656 137.351562 275.234375 L 176.144531 275.253906 L 177.433594 271.863281 Z M 279.488281 271.023438 C 286.683594 259.539062 296.832031 196.839844 291.980469 193.84375 C 290.066406 192.664062 196.558594 193.082031 195.386719 194.277344 C 194.167969 195.519531 192.425781 266.207031 193.503906 270.507812 L 194.371094 273.953125 L 277.648438 273.953125 L 279.484375 271.023438 Z M 338.507812 271.023438 C 343.78125 265.121094 348.191406 255.523438 353.128906 239.214844 C 359.085938 219.535156 362.546875 194.945312 359.621094 193.09375 C 356.691406 191.242188 313.757812 191.652344 311.226562 193.554688 C 309.546875 194.816406 308.761719 198.941406 307.722656 211.925781 C 306.261719 230.210938 301.941406 255.195312 299.070312 261.953125 C 298.074219 264.304688 297.257812 267.96875 297.257812 270.089844 L 297.257812 273.953125 L 316.574219 273.953125 C 334.960938 273.953125 336.015625 273.8125 338.507812 271.023438 Z M 64.488281 176.179688 C 65.347656 174.957031 66.214844 169.648438 66.414062 164.390625 C 66.925781 150.832031 73.789062 113.550781 76.878906 107.539062 C 79.390625 102.65625 77.515625 102.09375 58.707031 102.09375 C 42.414062 102.09375 40.3125 102.355469 38.011719 104.652344 C 34.273438 108.390625 29.503906 118.378906 25.503906 130.855469 C 23.570312 136.878906 21.191406 144.308594 20.210938 147.367188 C 17.460938 155.96875 16.363281 174.480469 18.457031 177 C 19.917969 178.761719 23.34375 179.019531 41.550781 178.738281 C 60.011719 178.453125 63.140625 178.105469 64.488281 176.179688 Z M 178.683594 141.152344 C 179.042969 121.460938 178.824219 104.617188 178.199219 103.722656 C 177.328125 102.480469 167.625 102.097656 137.15625 102.113281 C 115.207031 102.125 96.621094 102.566406 95.855469 103.089844 C 93.457031 104.738281 89.953125 115.214844 86.746094 130.34375 C 83.398438 146.117188 80.3125 172.738281 81.476562 175.765625 C 82.085938 177.359375 89.390625 177.589844 130.113281 177.300781 L 178.03125 176.957031 Z M 291.742188 175.980469 C 295.015625 171.96875 288.335938 126.160156 282.015625 109.257812 L 279.578125 102.746094 L 194.96875 102.746094 L 194.316406 138.324219 C 193.960938 157.890625 194.136719 174.734375 194.707031 175.753906 C 196.152344 178.324219 289.660156 178.542969 291.742188 175.984375 Z M 358.808594 175.980469 C 360.707031 174.519531 360.753906 173.09375 359.273438 161.984375 C 356.472656 140.992188 343.816406 106.59375 337.101562 101.722656 C 334.910156 100.132812 298.777344 101.351562 297.058594 103.070312 C 295.957031 104.167969 296.144531 105.734375 297.789062 109.191406 C 299 111.75 300.839844 118.667969 301.875 124.566406 C 302.90625 130.46875 304.359375 137.34375 305.097656 139.851562 C 305.839844 142.355469 306.8125 151.050781 307.265625 159.167969 C 307.828125 169.230469 308.675781 174.511719 309.929688 175.769531 C 312.433594 178.269531 355.589844 178.457031 358.808594 175.980469 Z M 82.53125 86.148438 C 83.667969 85.25 87.726562 78.367188 91.550781 70.847656 C 95.375 63.328125 102.796875 51.671875 108.046875 44.945312 C 113.488281 37.964844 117.097656 32.21875 116.449219 31.570312 C 114.960938 30.085938 93.410156 42.488281 83.085938 50.769531 C 68.015625 62.859375 49.105469 83.058594 50.195312 85.898438 C 51.15625 88.40625 79.390625 88.621094 82.53125 86.148438 Z M 178.234375 85.003906 C 179.621094 83.855469 179.988281 76.605469 179.988281 50.53125 L 179.988281 17.515625 L 176.730469 16.699219 C 172.445312 15.625 168.824219 16.621094 157.152344 22.082031 C 145.125 27.707031 130.433594 40.289062 120.222656 53.710938 C 110.699219 66.226562 100.609375 84.921875 102.683594 86.207031 C 105.210938 87.769531 176.265625 86.636719 178.234375 85.003906 Z M 271.738281 85.34375 C 272.804688 83.617188 261.71875 63.875 253.730469 53.269531 C 243.667969 39.914062 230.734375 28.804688 218.144531 22.699219 C 206.007812 16.820312 202.035156 15.609375 198.527344 16.722656 C 196.191406 17.460938 195.976562 19.566406 195.144531 50.195312 C 194.496094 74.011719 194.660156 83.363281 195.75 84.671875 C 196.957031 86.125 204.34375 86.472656 234.140625 86.472656 C 254.433594 86.472656 271.351562 85.964844 271.738281 85.339844 Z M 326.464844 85.335938 C 327.46875 83.714844 312.222656 66.285156 302.355469 57.777344 C 289.375 46.582031 284.320312 42.960938 274.054688 37.5 L 260.375 30.222656 C 258.082031 29.003906 255.789062 27.980469 255.277344 27.945312 C 253.757812 27.84375 258.886719 35.679688 266.933594 45.757812 C 271.070312 50.929688 277.96875 61.898438 282.269531 70.128906 C 286.566406 78.359375 290.964844 85.335938 292.039062 85.632812 C 295.917969 86.699219 325.78125 86.445312 326.464844 85.335938 Z M 326.464844 85.335938 " fill-opacity="1" fill-rule="nonzero"/></svg>