<svg xmlns="http://www.w3.org/2000/svg" xmlns:xlink="http://www.w3.org/1999/xlink" width="100" zoomAndPan="magnify" viewBox="0 0 75 30.000001" height="40" preserveAspectRatio="xMidYMid meet" version="1.0"><defs><g/><clipPath id="83aaaf4577"><path d="M 32.488281 2.902344 L 42.652344 2.902344 L 42.652344 13.066406 L 32.488281 13.066406 Z M 32.488281 2.902344 " clip-rule="nonzero"/></clipPath></defs><g fill="#1b1b1b" fill-opacity="1"><g transform="translate(15.959991, 12.338712)"><g><path d="M 4.0625 -1.910156 C 4.0625 -0.816406 3.410156 0 2.660156 0 C 2.023438 0 1.640625 -0.851562 1.640625 -1.910156 L 1.640625 -7 C 1.640625 -8.058594 2.023438 -8.910156 2.660156 -8.910156 C 3.410156 -8.910156 4.0625 -8.097656 4.0625 -7 L 4.1875 -7 L 4.1875 -8.910156 L 4.0625 -8.910156 C 4.0625 -8.605469 3.910156 -8.453125 3.730469 -8.453125 C 3.449219 -8.824219 3.066406 -9.039062 2.535156 -9.039062 C 1.476562 -9.039062 0.625 -8.121094 0.625 -7 L 0.625 -1.910156 C 0.625 -0.789062 1.476562 0.128906 2.535156 0.128906 C 3.066406 0.128906 3.449219 -0.101562 3.730469 -0.457031 C 3.910156 -0.457031 4.0625 -0.304688 4.0625 0 L 4.1875 0 L 4.1875 -1.910156 Z M 4.0625 -1.910156 "/></g></g></g><g fill="#1b1b1b" fill-opacity="1"><g transform="translate(22.717698, 12.338712)"><g><path d="M 4.074219 0 L 4.074219 -1.78125 L 3.945312 -1.78125 C 3.945312 -0.867188 3.578125 -0.128906 3.117188 -0.128906 L 1.910156 -0.128906 L 1.910156 -8.785156 L 2.417969 -8.785156 L 2.417969 -8.910156 L 0.382812 -8.910156 L 0.382812 -8.785156 L 0.890625 -8.785156 L 0.890625 -0.128906 L 0.382812 -0.128906 L 0.382812 0 Z M 4.074219 0 "/></g></g></g><g fill="#1b1b1b" fill-opacity="1"><g transform="translate(29.160596, 12.338712)"><g/></g></g><g fill="#1b1b1b" fill-opacity="1"><g transform="translate(33.475251, 12.338712)"><g/></g></g><g fill="#1b1b1b" fill-opacity="1"><g transform="translate(37.789907, 12.338712)"><g/></g></g><g fill="#1b1b1b" fill-opacity="1"><g transform="translate(42.104561, 12.338712)"><g/></g></g><g fill="#1b1b1b" fill-opacity="1"><g transform="translate(46.40984, 12.338712)"><g><path d="M 4.355469 -8.402344 C 4.355469 -8.617188 4.519531 -8.785156 4.925781 -8.785156 L 4.925781 -8.910156 L 3.71875 -8.910156 L 3.71875 -8.785156 L 4.226562 -8.785156 L 4.226562 -1.910156 C 4.226562 -0.851562 3.601562 0 2.828125 0 C 2.191406 0 1.808594 -0.851562 1.808594 -1.910156 L 1.808594 -8.785156 L 2.316406 -8.785156 L 2.316406 -8.910156 L 0.28125 -8.910156 L 0.28125 -8.785156 L 0.789062 -8.785156 L 0.789062 -1.910156 C 0.789062 -0.789062 1.640625 0.128906 2.828125 0.128906 C 3.667969 0.128906 4.355469 -0.789062 4.355469 -1.910156 Z M 4.355469 -8.402344 "/></g></g></g><g fill="#1b1b1b" fill-opacity="1"><g transform="translate(53.727406, 12.338712)"><g><path d="M 0.382812 -0.128906 L 0.382812 0 L 2.417969 0 C 3.792969 0 4.710938 -0.917969 4.710938 -2.035156 L 4.710938 -6.875 C 4.710938 -7.996094 3.792969 -8.910156 2.417969 -8.910156 L 0.382812 -8.910156 L 0.382812 -8.785156 L 0.890625 -8.785156 L 0.890625 -0.128906 Z M 3.691406 -2.035156 C 3.691406 -0.980469 3.117188 -0.128906 2.417969 -0.128906 L 1.910156 -0.128906 L 1.910156 -8.785156 L 2.417969 -8.785156 C 3.117188 -8.785156 3.691406 -7.929688 3.691406 -6.875 Z M 3.691406 -2.035156 "/></g></g></g><g fill="#1b1b1b" fill-opacity="1"><g transform="translate(2.645979, 24.677421)"><g><path d="M 0.203125 -8.910156 L 0.203125 -7.128906 L 0.332031 -7.128906 C 0.332031 -8.046875 0.699219 -8.785156 1.160156 -8.785156 L 1.984375 -8.785156 L 1.984375 -0.128906 L 1.476562 -0.128906 L 1.476562 0 L 3.511719 0 L 3.511719 -0.128906 L 3.003906 -0.128906 L 3.003906 -8.785156 L 3.832031 -8.785156 C 4.289062 -8.785156 4.660156 -8.046875 4.660156 -7.128906 L 4.785156 -7.128906 L 4.785156 -8.910156 Z M 0.203125 -8.910156 "/></g></g></g><g fill="#1b1b1b" fill-opacity="1"><g transform="translate(9.798131, 24.677421)"><g><path d="M 2.417969 -4.328125 C 3.117188 -4.328125 3.691406 -3.476562 3.691406 -2.417969 L 3.691406 -0.699219 C 3.691406 -0.242188 4.0625 0.128906 4.519531 0.128906 C 4.976562 0.128906 5.347656 -0.242188 5.347656 -0.699219 L 5.21875 -0.699219 C 5.21875 -0.457031 5.105469 -0.265625 4.964844 -0.265625 C 4.824219 -0.265625 4.710938 -0.457031 4.710938 -0.699219 L 4.710938 -2.417969 C 4.710938 -3.359375 4.046875 -4.164062 3.03125 -4.390625 C 4.046875 -4.621094 4.710938 -5.421875 4.710938 -6.367188 L 4.710938 -6.875 C 4.710938 -7.996094 3.792969 -8.910156 2.417969 -8.910156 L 0.382812 -8.910156 L 0.382812 -8.785156 L 0.890625 -8.785156 L 0.890625 -0.128906 L 0.382812 -0.128906 L 0.382812 0 L 2.417969 0 L 2.417969 -0.128906 L 1.910156 -0.128906 L 1.910156 -4.328125 Z M 2.417969 -8.785156 C 3.117188 -8.785156 3.691406 -7.929688 3.691406 -6.875 L 3.691406 -6.367188 C 3.691406 -5.308594 3.117188 -4.457031 2.417969 -4.457031 L 1.910156 -4.457031 L 1.910156 -8.785156 Z M 2.417969 -8.785156 "/></g></g></g><g fill="#1b1b1b" fill-opacity="1"><g transform="translate(17.395638, 24.677421)"><g><path d="M -0.078125 0 L 1.144531 0 L 1.144531 -0.128906 L 0.660156 -0.128906 L 1.183594 -2.609375 L 3.003906 -2.609375 L 3.539062 -0.128906 L 3.03125 -0.128906 L 3.03125 0 L 5.09375 0 L 5.09375 -0.128906 L 4.582031 -0.128906 L 2.621094 -9.039062 L 2.417969 -9.039062 L 0.636719 -0.609375 C 0.574219 -0.316406 0.332031 -0.128906 -0.078125 -0.128906 Z M 2.074219 -6.785156 L 2.980469 -2.738281 L 1.210938 -2.738281 Z M 2.074219 -6.785156 "/></g></g></g><g fill="#1b1b1b" fill-opacity="1"><g transform="translate(24.64959, 24.677421)"><g><path d="M 0.316406 -8.910156 L 0.316406 -8.785156 C 0.726562 -8.785156 0.890625 -8.617188 0.890625 -8.402344 L 0.890625 -0.507812 C 0.890625 -0.292969 0.726562 -0.128906 0.316406 -0.128906 L 0.316406 0 L 1.527344 0 L 1.527344 -0.128906 L 1.019531 -0.128906 L 1.019531 -7.929688 L 3.972656 0 L 4.175781 0 L 4.175781 -8.402344 C 4.175781 -8.617188 4.339844 -8.785156 4.75 -8.785156 L 4.75 -8.910156 L 3.539062 -8.910156 L 3.539062 -8.785156 L 4.046875 -8.785156 L 4.046875 -2.570312 L 1.679688 -8.910156 Z M 0.316406 -8.910156 "/></g></g></g><g fill="#1b1b1b" fill-opacity="1"><g transform="translate(31.827192, 24.677421)"><g><path d="M 0.457031 0 L 0.585938 0 C 0.585938 -0.40625 0.714844 -0.585938 0.851562 -0.636719 C 1.171875 -0.164062 1.667969 0.128906 2.355469 0.128906 C 3.550781 0.128906 4.253906 -0.902344 4.253906 -2.164062 C 4.253906 -4.8125 1.375 -5.003906 1.375 -7.382812 C 1.375 -8.289062 1.730469 -8.875 2.417969 -8.875 C 3.195312 -8.875 3.871094 -8.03125 3.871094 -7 L 3.996094 -7 L 3.996094 -8.910156 L 3.871094 -8.910156 C 3.871094 -8.605469 3.71875 -8.453125 3.527344 -8.453125 C 3.234375 -8.808594 2.8125 -9.039062 2.226562 -9.039062 C 1.09375 -9.039062 0.457031 -8.070312 0.457031 -6.875 C 0.457031 -4.199219 3.335938 -4.011719 3.335938 -1.65625 C 3.335938 -0.75 2.851562 -0.0390625 2.164062 -0.0390625 C 1.324219 -0.0390625 0.585938 -0.929688 0.585938 -2.035156 L 0.457031 -2.035156 Z M 0.457031 0 "/></g></g></g><g fill="#1b1b1b" fill-opacity="1"><g transform="translate(38.5849, 24.677421)"><g><path d="M 4.074219 0 L 4.074219 -1.78125 L 3.945312 -1.78125 C 3.945312 -0.867188 3.578125 -0.128906 3.117188 -0.128906 L 1.910156 -0.128906 L 1.910156 -8.785156 L 2.417969 -8.785156 L 2.417969 -8.910156 L 0.382812 -8.910156 L 0.382812 -8.785156 L 0.890625 -8.785156 L 0.890625 -0.128906 L 0.382812 -0.128906 L 0.382812 0 Z M 4.074219 0 "/></g></g></g><g fill="#1b1b1b" fill-opacity="1"><g transform="translate(45.037227, 24.677421)"><g><path d="M -0.078125 0 L 1.144531 0 L 1.144531 -0.128906 L 0.660156 -0.128906 L 1.183594 -2.609375 L 3.003906 -2.609375 L 3.539062 -0.128906 L 3.03125 -0.128906 L 3.03125 0 L 5.09375 0 L 5.09375 -0.128906 L 4.582031 -0.128906 L 2.621094 -9.039062 L 2.417969 -9.039062 L 0.636719 -0.609375 C 0.574219 -0.316406 0.332031 -0.128906 -0.078125 -0.128906 Z M 2.074219 -6.785156 L 2.980469 -2.738281 L 1.210938 -2.738281 Z M 2.074219 -6.785156 "/></g></g></g><g fill="#1b1b1b" fill-opacity="1"><g transform="translate(52.29118, 24.677421)"><g><path d="M 0.203125 -8.910156 L 0.203125 -7.128906 L 0.332031 -7.128906 C 0.332031 -8.046875 0.699219 -8.785156 1.160156 -8.785156 L 1.984375 -8.785156 L 1.984375 -0.128906 L 1.476562 -0.128906 L 1.476562 0 L 3.511719 0 L 3.511719 -0.128906 L 3.003906 -0.128906 L 3.003906 -8.785156 L 3.832031 -8.785156 C 4.289062 -8.785156 4.660156 -8.046875 4.660156 -7.128906 L 4.785156 -7.128906 L 4.785156 -8.910156 Z M 0.203125 -8.910156 "/></g></g></g><g fill="#1b1b1b" fill-opacity="1"><g transform="translate(59.443329, 24.677421)"><g><path d="M 3.679688 -1.910156 C 3.679688 -0.851562 3.296875 0 2.660156 0 C 2.023438 0 1.640625 -0.851562 1.640625 -1.910156 L 1.640625 -7 C 1.640625 -8.058594 2.023438 -8.910156 2.660156 -8.910156 C 3.296875 -8.910156 3.679688 -8.058594 3.679688 -7 Z M 0.625 -1.910156 C 0.625 -0.789062 1.476562 0.128906 2.660156 0.128906 C 3.84375 0.128906 4.699219 -0.789062 4.699219 -1.910156 L 4.699219 -7 C 4.699219 -8.121094 3.84375 -9.039062 2.660156 -9.039062 C 1.476562 -9.039062 0.625 -8.121094 0.625 -7 Z M 0.625 -1.910156 "/></g></g></g><g fill="#1b1b1b" fill-opacity="1"><g transform="translate(66.926309, 24.677421)"><g><path d="M 2.417969 -4.328125 C 3.117188 -4.328125 3.691406 -3.476562 3.691406 -2.417969 L 3.691406 -0.699219 C 3.691406 -0.242188 4.0625 0.128906 4.519531 0.128906 C 4.976562 0.128906 5.347656 -0.242188 5.347656 -0.699219 L 5.21875 -0.699219 C 5.21875 -0.457031 5.105469 -0.265625 4.964844 -0.265625 C 4.824219 -0.265625 4.710938 -0.457031 4.710938 -0.699219 L 4.710938 -2.417969 C 4.710938 -3.359375 4.046875 -4.164062 3.03125 -4.390625 C 4.046875 -4.621094 4.710938 -5.421875 4.710938 -6.367188 L 4.710938 -6.875 C 4.710938 -7.996094 3.792969 -8.910156 2.417969 -8.910156 L 0.382812 -8.910156 L 0.382812 -8.785156 L 0.890625 -8.785156 L 0.890625 -0.128906 L 0.382812 -0.128906 L 0.382812 0 L 2.417969 0 L 2.417969 -0.128906 L 1.910156 -0.128906 L 1.910156 -4.328125 Z M 2.417969 -8.785156 C 3.117188 -8.785156 3.691406 -7.929688 3.691406 -6.875 L 3.691406 -6.367188 C 3.691406 -5.308594 3.117188 -4.457031 2.417969 -4.457031 L 1.910156 -4.457031 L 1.910156 -8.785156 Z M 2.417969 -8.785156 "/></g></g></g><g clip-path="url(#83aaaf4577)"><path fill="#000000" d="M 36.785156 13.007812 C 36.746094 12.992188 36.671875 12.976562 36.617188 12.976562 C 36.480469 12.972656 35.613281 12.699219 35.449219 12.605469 C 35.371094 12.5625 35.179688 12.457031 35.023438 12.371094 C 34.609375 12.144531 34.042969 11.65625 33.679688 11.214844 C 33.367188 10.839844 32.898438 10.035156 32.84375 9.792969 C 32.832031 9.730469 32.773438 9.539062 32.714844 9.363281 C 32.546875 8.835938 32.488281 8.027344 32.570312 7.292969 C 32.660156 6.484375 33.078125 5.472656 33.5625 4.894531 C 33.652344 4.785156 33.753906 4.660156 33.792969 4.609375 C 33.886719 4.496094 34.121094 4.261719 34.234375 4.167969 C 34.28125 4.128906 34.410156 4.027344 34.515625 3.9375 C 34.621094 3.847656 34.765625 3.742188 34.832031 3.703125 C 35.195312 3.488281 35.640625 3.257812 35.78125 3.214844 C 36.726562 2.933594 36.894531 2.90625 37.574219 2.90625 C 38.085938 2.90625 38.597656 2.960938 38.824219 3.035156 C 38.898438 3.0625 39.082031 3.121094 39.226562 3.164062 C 39.488281 3.238281 39.84375 3.40625 40.203125 3.617188 C 40.308594 3.679688 40.402344 3.730469 40.410156 3.730469 C 40.421875 3.730469 40.53125 3.8125 40.648438 3.914062 C 40.765625 4.015625 40.9375 4.160156 41.03125 4.234375 C 41.253906 4.414062 41.800781 5.097656 41.96875 5.40625 C 42.039062 5.539062 42.140625 5.722656 42.1875 5.808594 C 42.285156 5.980469 42.511719 6.679688 42.574219 6.980469 C 42.640625 7.316406 42.652344 8.488281 42.589844 8.84375 C 42.375 10.101562 41.734375 11.175781 40.699219 12.007812 C 40.445312 12.214844 40.339844 12.28125 39.8125 12.566406 C 39.558594 12.703125 39.0625 12.875 38.648438 12.964844 C 38.367188 13.027344 36.898438 13.0625 36.785156 13.007812 Z M 38.410156 12.441406 C 38.871094 12.207031 39.390625 11.664062 39.699219 11.089844 C 39.773438 10.957031 39.820312 10.828125 39.8125 10.800781 C 39.785156 10.734375 37.824219 10.726562 37.757812 10.792969 C 37.710938 10.839844 37.695312 12.550781 37.738281 12.597656 C 37.792969 12.652344 38.167969 12.566406 38.410156 12.441406 Z M 37.292969 11.71875 C 37.304688 11.253906 37.296875 10.84375 37.28125 10.808594 C 37.253906 10.75 37.226562 10.742188 37.039062 10.761719 C 36.921875 10.777344 36.480469 10.785156 36.058594 10.785156 C 35.320312 10.785156 35.289062 10.789062 35.289062 10.855469 C 35.289062 10.890625 35.304688 10.929688 35.320312 10.941406 C 35.335938 10.953125 35.394531 11.042969 35.449219 11.148438 C 35.820312 11.867188 36.671875 12.597656 37.117188 12.574219 L 37.277344 12.566406 Z M 39.660156 12.1875 C 39.761719 12.125 39.917969 12.03125 40.011719 11.984375 C 40.402344 11.785156 41.351562 10.890625 41.285156 10.785156 C 41.25 10.730469 40.371094 10.738281 40.328125 10.792969 C 40.308594 10.820312 40.210938 11 40.109375 11.195312 C 40.007812 11.394531 39.800781 11.714844 39.644531 11.914062 C 39.492188 12.109375 39.367188 12.277344 39.367188 12.285156 C 39.367188 12.332031 39.5 12.289062 39.660156 12.1875 Z M 35.636719 12.132812 C 35.609375 12.097656 35.492188 11.9375 35.375 11.78125 C 35.253906 11.625 35.089844 11.367188 35.007812 11.203125 C 34.785156 10.765625 34.820312 10.785156 34.335938 10.785156 C 33.984375 10.785156 33.917969 10.792969 33.917969 10.839844 C 33.917969 10.910156 34.539062 11.535156 34.8125 11.742188 C 35.261719 12.082031 35.78125 12.324219 35.636719 12.132812 Z M 34.605469 10.324219 C 34.617188 10.304688 34.605469 10.21875 34.574219 10.140625 C 34.484375 9.898438 34.3125 8.960938 34.292969 8.585938 C 34.28125 8.394531 34.253906 8.214844 34.230469 8.1875 C 34.199219 8.148438 34.0625 8.140625 33.625 8.140625 C 33.3125 8.140625 33.03125 8.15625 33.003906 8.171875 C 32.851562 8.269531 33.09375 9.421875 33.382812 9.988281 C 33.578125 10.371094 33.558594 10.363281 34.109375 10.363281 C 34.410156 10.363281 34.589844 10.347656 34.605469 10.324219 Z M 37.292969 10.269531 C 37.316406 10.214844 37.324219 9.773438 37.320312 9.167969 L 37.3125 8.15625 L 36.046875 8.148438 C 35.347656 8.144531 34.757812 8.152344 34.730469 8.171875 C 34.6875 8.199219 34.6875 8.273438 34.71875 8.65625 C 34.785156 9.382812 34.988281 10.25 35.121094 10.332031 C 35.144531 10.347656 35.636719 10.359375 36.214844 10.363281 L 37.261719 10.363281 Z M 40.050781 10.246094 C 40.242188 9.9375 40.515625 8.238281 40.386719 8.15625 C 40.335938 8.125 37.8125 8.136719 37.78125 8.167969 C 37.746094 8.203125 37.699219 10.117188 37.730469 10.234375 L 37.753906 10.328125 L 40 10.328125 Z M 41.640625 10.246094 C 41.785156 10.085938 41.902344 9.828125 42.035156 9.386719 C 42.199219 8.851562 42.289062 8.1875 42.210938 8.136719 C 42.132812 8.085938 40.972656 8.097656 40.90625 8.148438 C 40.859375 8.183594 40.839844 8.292969 40.8125 8.644531 C 40.773438 9.140625 40.65625 9.820312 40.578125 10 C 40.550781 10.066406 40.527344 10.164062 40.527344 10.222656 L 40.527344 10.328125 L 41.050781 10.328125 C 41.546875 10.328125 41.574219 10.324219 41.640625 10.246094 Z M 34.246094 7.675781 C 34.269531 7.644531 34.292969 7.5 34.296875 7.359375 C 34.3125 6.988281 34.496094 5.980469 34.582031 5.816406 C 34.648438 5.683594 34.597656 5.667969 34.089844 5.667969 C 33.652344 5.667969 33.59375 5.675781 33.53125 5.738281 C 33.429688 5.839844 33.300781 6.109375 33.195312 6.449219 C 33.140625 6.613281 33.078125 6.8125 33.050781 6.894531 C 32.976562 7.128906 32.949219 7.632812 33.003906 7.699219 C 33.042969 7.746094 33.136719 7.753906 33.628906 7.746094 C 34.125 7.738281 34.210938 7.730469 34.246094 7.675781 Z M 37.328125 6.726562 C 37.339844 6.195312 37.332031 5.738281 37.316406 5.714844 C 37.292969 5.679688 37.03125 5.667969 36.207031 5.667969 C 35.617188 5.671875 35.113281 5.683594 35.09375 5.695312 C 35.027344 5.742188 34.933594 6.023438 34.847656 6.433594 C 34.757812 6.863281 34.671875 7.582031 34.703125 7.664062 C 34.722656 7.710938 34.917969 7.714844 36.019531 7.707031 L 37.3125 7.699219 Z M 40.378906 7.671875 C 40.46875 7.5625 40.289062 6.320312 40.117188 5.863281 L 40.050781 5.6875 L 37.769531 5.6875 L 37.75 6.652344 C 37.742188 7.179688 37.746094 7.636719 37.761719 7.664062 C 37.800781 7.734375 40.324219 7.742188 40.378906 7.671875 Z M 42.191406 7.671875 C 42.242188 7.632812 42.242188 7.59375 42.203125 7.292969 C 42.125 6.722656 41.785156 5.792969 41.605469 5.660156 C 41.546875 5.617188 40.570312 5.648438 40.523438 5.695312 C 40.492188 5.726562 40.5 5.769531 40.542969 5.863281 C 40.574219 5.929688 40.625 6.117188 40.652344 6.277344 C 40.679688 6.4375 40.71875 6.625 40.742188 6.691406 C 40.761719 6.761719 40.785156 6.996094 40.800781 7.214844 C 40.8125 7.488281 40.835938 7.632812 40.871094 7.664062 C 40.9375 7.734375 42.101562 7.738281 42.191406 7.671875 Z M 34.734375 5.238281 C 34.765625 5.210938 34.875 5.027344 34.976562 4.824219 C 35.082031 4.617188 35.28125 4.304688 35.421875 4.121094 C 35.570312 3.929688 35.667969 3.777344 35.648438 3.757812 C 35.609375 3.71875 35.027344 4.054688 34.75 4.277344 C 34.34375 4.605469 33.832031 5.152344 33.859375 5.230469 C 33.886719 5.296875 34.648438 5.304688 34.734375 5.238281 Z M 37.316406 5.207031 C 37.355469 5.175781 37.363281 4.976562 37.363281 4.273438 L 37.363281 3.378906 L 37.277344 3.355469 C 37.160156 3.324219 37.0625 3.351562 36.746094 3.5 C 36.421875 3.652344 36.027344 3.996094 35.75 4.359375 C 35.492188 4.695312 35.222656 5.203125 35.277344 5.238281 C 35.34375 5.28125 37.261719 5.25 37.316406 5.207031 Z M 39.839844 5.214844 C 39.867188 5.167969 39.570312 4.632812 39.355469 4.347656 C 39.082031 3.984375 38.734375 3.683594 38.394531 3.519531 C 38.066406 3.359375 37.957031 3.324219 37.863281 3.355469 C 37.800781 3.375 37.796875 3.433594 37.773438 4.261719 C 37.753906 4.90625 37.761719 5.160156 37.789062 5.195312 C 37.820312 5.238281 38.019531 5.246094 38.824219 5.246094 C 39.371094 5.246094 39.828125 5.230469 39.839844 5.214844 Z M 41.316406 5.214844 C 41.34375 5.171875 40.933594 4.699219 40.667969 4.46875 C 40.316406 4.164062 40.179688 4.066406 39.902344 3.917969 L 39.535156 3.722656 C 39.472656 3.6875 39.410156 3.660156 39.394531 3.660156 C 39.355469 3.65625 39.492188 3.871094 39.710938 4.140625 C 39.820312 4.28125 40.007812 4.578125 40.125 4.804688 C 40.242188 5.027344 40.359375 5.214844 40.386719 5.222656 C 40.492188 5.253906 41.296875 5.246094 41.316406 5.214844 Z M 41.316406 5.214844 " fill-opacity="1" fill-rule="nonzero"/></g></svg>